<mxfile host="65bd71144e" pages="4">
    <diagram name="Home" id="Rrmy49G5Llmx6l95LqO_">
        <mxGraphModel dx="2662" dy="2711" grid="1" gridSize="10" guides="1" tooltips="1" connect="1" arrows="1" fold="1" page="0" pageScale="1" pageWidth="1600" pageHeight="900" math="0" shadow="0">
            <root>
                <mxCell id="0"/>
                <mxCell id="1" parent="0"/>
                <mxCell id="Sf3mdSGLbu3v4nB1Q_qR-1" value="NAV" style="rounded=0;whiteSpace=wrap;html=1;fontSize=16;" parent="1" vertex="1">
                    <mxGeometry x="-399" y="-1260" width="1319" height="60" as="geometry"/>
                </mxCell>
                <mxCell id="Sf3mdSGLbu3v4nB1Q_qR-2" value="" style="rounded=0;whiteSpace=wrap;html=1;fontSize=16;" parent="1" vertex="1">
                    <mxGeometry x="-399" y="-1260" width="62.36406619385343" height="60" as="geometry"/>
                </mxCell>
                <mxCell id="Sf3mdSGLbu3v4nB1Q_qR-3" value="" style="endArrow=none;html=1;rounded=0;fontSize=12;startSize=8;endSize=8;curved=1;" parent="1" edge="1">
                    <mxGeometry width="50" height="50" relative="1" as="geometry">
                        <mxPoint x="-393.80299448384557" y="-1205" as="sourcePoint"/>
                        <mxPoint x="-341.832939322301" y="-1255" as="targetPoint"/>
                    </mxGeometry>
                </mxCell>
                <mxCell id="Sf3mdSGLbu3v4nB1Q_qR-4" value="" style="endArrow=none;html=1;rounded=0;fontSize=12;startSize=8;endSize=8;curved=1;" parent="1" edge="1">
                    <mxGeometry width="50" height="50" relative="1" as="geometry">
                        <mxPoint x="-341.832939322301" y="-1205" as="sourcePoint"/>
                        <mxPoint x="-393.80299448384557" y="-1255" as="targetPoint"/>
                    </mxGeometry>
                </mxCell>
                <mxCell id="Sf3mdSGLbu3v4nB1Q_qR-12" value="footer" style="rounded=0;whiteSpace=wrap;html=1;fontSize=16;" parent="1" vertex="1">
                    <mxGeometry x="-399" y="-478" width="1319" height="150" as="geometry"/>
                </mxCell>
                <mxCell id="Sf3mdSGLbu3v4nB1Q_qR-13" value="&lt;font style=&quot;font-size: 50px;&quot;&gt;Techniek College Rotterdam&lt;/font&gt;" style="rounded=0;whiteSpace=wrap;html=1;fontSize=16;" parent="1" vertex="1">
                    <mxGeometry x="-336.64" y="-1120" width="530" height="190" as="geometry"/>
                </mxCell>
                <mxCell id="Sf3mdSGLbu3v4nB1Q_qR-14" value="" style="rounded=0;whiteSpace=wrap;html=1;fontSize=16;" parent="1" vertex="1">
                    <mxGeometry x="280" y="-1140" width="610" height="600" as="geometry"/>
                </mxCell>
                <mxCell id="Sf3mdSGLbu3v4nB1Q_qR-15" value="Lorem ipsum dolor sit amet, consectetur adipiscing elit. Proin ultricies mi massa, sed dignissim erat ornare a. Suspendisse nulla tellus, tempor nec rhoncus a, rhoncus quis tellus. Mauris elementum ultrices euismod. Aenean dignissim mattis nunc et scelerisque. Sed justo ipsum, tempus ac vulputate at, tempus non magna. Morbi nec turpis at arcu varius commodo. Donec suscipit tempor elit, id auctor est aliquet suscipit. Vivamus vitae nunc velit. Vestibulum placerat libero risus, sit amet placerat nulla accumsan hendrerit. Etiam aliquam vehicula dictum. Praesent vehicula vel ipsum eget commodo. Fusce ullamcorper faucibus dui at congue. Vestibulum fermentum urna et mauris mollis, sit amet faucibus nunc hendrerit." style="rounded=0;whiteSpace=wrap;html=1;fontSize=16;" parent="1" vertex="1">
                    <mxGeometry x="-336.64" y="-894" width="536.64" height="260" as="geometry"/>
                </mxCell>
                <mxCell id="Sf3mdSGLbu3v4nB1Q_qR-16" value="" style="endArrow=none;html=1;rounded=0;fontSize=12;startSize=8;endSize=8;curved=1;entryX=1;entryY=0;entryDx=0;entryDy=0;exitX=0;exitY=1;exitDx=0;exitDy=0;" parent="1" source="Sf3mdSGLbu3v4nB1Q_qR-14" target="Sf3mdSGLbu3v4nB1Q_qR-14" edge="1">
                    <mxGeometry width="50" height="50" relative="1" as="geometry">
                        <mxPoint x="530" y="-980" as="sourcePoint"/>
                        <mxPoint x="580" y="-1030" as="targetPoint"/>
                    </mxGeometry>
                </mxCell>
                <mxCell id="Sf3mdSGLbu3v4nB1Q_qR-17" value="" style="endArrow=none;html=1;rounded=0;fontSize=12;startSize=8;endSize=8;curved=1;entryX=0;entryY=0;entryDx=0;entryDy=0;exitX=1;exitY=1;exitDx=0;exitDy=0;" parent="1" source="Sf3mdSGLbu3v4nB1Q_qR-14" target="Sf3mdSGLbu3v4nB1Q_qR-14" edge="1">
                    <mxGeometry width="50" height="50" relative="1" as="geometry">
                        <mxPoint x="320" y="-580" as="sourcePoint"/>
                        <mxPoint x="870" y="-1130" as="targetPoint"/>
                    </mxGeometry>
                </mxCell>
                <mxCell id="gPpPZFkJrHFrpKDAeOeE-1" value="ga naar open dagen overzicht" style="rounded=0;whiteSpace=wrap;html=1;fontSize=16;" parent="1" vertex="1">
                    <mxGeometry x="-336.64" y="-590" width="250" height="50" as="geometry"/>
                </mxCell>
                <mxCell id="gPpPZFkJrHFrpKDAeOeE-2" value="ga naar de quiz" style="rounded=0;whiteSpace=wrap;html=1;fontSize=16;" parent="1" vertex="1">
                    <mxGeometry x="-49" y="-590" width="250" height="50" as="geometry"/>
                </mxCell>
            </root>
        </mxGraphModel>
    </diagram>
    <diagram id="3Zzo0j3vJDxpm176rVeQ" name="quiz">
        <mxGraphModel dx="1644" dy="2211" grid="1" gridSize="10" guides="1" tooltips="1" connect="1" arrows="1" fold="1" page="0" pageScale="1" pageWidth="1600" pageHeight="900" math="0" shadow="0">
            <root>
                <mxCell id="0"/>
                <mxCell id="1" parent="0"/>
                <mxCell id="dQmHCgjvhaU6u8GMg93T-1" value="NAV" style="rounded=0;whiteSpace=wrap;html=1;fontSize=16;" parent="1" vertex="1">
                    <mxGeometry x="-399" y="-1260" width="1319" height="60" as="geometry"/>
                </mxCell>
                <mxCell id="dQmHCgjvhaU6u8GMg93T-2" value="c" style="rounded=0;whiteSpace=wrap;html=1;fontSize=16;" parent="1" vertex="1">
                    <mxGeometry x="-399" y="-1260" width="62.36406619385343" height="60" as="geometry"/>
                </mxCell>
                <mxCell id="dQmHCgjvhaU6u8GMg93T-3" value="" style="endArrow=none;html=1;rounded=0;fontSize=12;startSize=8;endSize=8;curved=1;" parent="1" edge="1">
                    <mxGeometry width="50" height="50" relative="1" as="geometry">
                        <mxPoint x="-393.80299448384557" y="-1205" as="sourcePoint"/>
                        <mxPoint x="-341.832939322301" y="-1255" as="targetPoint"/>
                    </mxGeometry>
                </mxCell>
                <mxCell id="dQmHCgjvhaU6u8GMg93T-4" value="" style="endArrow=none;html=1;rounded=0;fontSize=12;startSize=8;endSize=8;curved=1;" parent="1" edge="1">
                    <mxGeometry width="50" height="50" relative="1" as="geometry">
                        <mxPoint x="-341.832939322301" y="-1205" as="sourcePoint"/>
                        <mxPoint x="-393.80299448384557" y="-1255" as="targetPoint"/>
                    </mxGeometry>
                </mxCell>
                <mxCell id="dQmHCgjvhaU6u8GMg93T-5" value="footer" style="rounded=0;whiteSpace=wrap;html=1;fontSize=16;" parent="1" vertex="1">
                    <mxGeometry x="-399" y="419" width="1319" height="150" as="geometry"/>
                </mxCell>
                <mxCell id="ncDOiu-j-n8d5i0-K15V-1" value="vraag 1" style="rounded=0;whiteSpace=wrap;html=1;fontSize=16;" parent="1" vertex="1">
                    <mxGeometry x="-50" y="-1120" width="639" height="60" as="geometry"/>
                </mxCell>
                <mxCell id="ncDOiu-j-n8d5i0-K15V-2" value="antwoord 1" style="rounded=0;whiteSpace=wrap;html=1;fontSize=16;" parent="1" vertex="1">
                    <mxGeometry x="-30" y="-1030" width="260" height="60" as="geometry"/>
                </mxCell>
                <mxCell id="ncDOiu-j-n8d5i0-K15V-3" value="antwoord 3" style="rounded=0;whiteSpace=wrap;html=1;fontSize=16;" parent="1" vertex="1">
                    <mxGeometry x="-30" y="-930" width="260" height="60" as="geometry"/>
                </mxCell>
                <mxCell id="ncDOiu-j-n8d5i0-K15V-4" value="antwoord 4" style="rounded=0;whiteSpace=wrap;html=1;fontSize=16;" parent="1" vertex="1">
                    <mxGeometry x="310" y="-930" width="250" height="60" as="geometry"/>
                </mxCell>
                <mxCell id="ncDOiu-j-n8d5i0-K15V-5" value="antwoord 2" style="rounded=0;whiteSpace=wrap;html=1;fontSize=16;" parent="1" vertex="1">
                    <mxGeometry x="310" y="-1030" width="250" height="60" as="geometry"/>
                </mxCell>
                <mxCell id="ncDOiu-j-n8d5i0-K15V-51" value="vraag 2" style="rounded=0;whiteSpace=wrap;html=1;fontSize=16;" parent="1" vertex="1">
                    <mxGeometry x="-50" y="-840" width="639" height="60" as="geometry"/>
                </mxCell>
                <mxCell id="ncDOiu-j-n8d5i0-K15V-52" value="antwoord 1" style="rounded=0;whiteSpace=wrap;html=1;fontSize=16;" parent="1" vertex="1">
                    <mxGeometry x="-30" y="-750" width="260" height="60" as="geometry"/>
                </mxCell>
                <mxCell id="ncDOiu-j-n8d5i0-K15V-53" value="antwoord 3" style="rounded=0;whiteSpace=wrap;html=1;fontSize=16;" parent="1" vertex="1">
                    <mxGeometry x="-30" y="-650" width="260" height="60" as="geometry"/>
                </mxCell>
                <mxCell id="ncDOiu-j-n8d5i0-K15V-54" value="antwoord 4" style="rounded=0;whiteSpace=wrap;html=1;fontSize=16;" parent="1" vertex="1">
                    <mxGeometry x="310" y="-650" width="250" height="60" as="geometry"/>
                </mxCell>
                <mxCell id="ncDOiu-j-n8d5i0-K15V-55" value="antwoord 2" style="rounded=0;whiteSpace=wrap;html=1;fontSize=16;" parent="1" vertex="1">
                    <mxGeometry x="310" y="-750" width="250" height="60" as="geometry"/>
                </mxCell>
                <mxCell id="ncDOiu-j-n8d5i0-K15V-56" value="vraag 3" style="rounded=0;whiteSpace=wrap;html=1;fontSize=16;" parent="1" vertex="1">
                    <mxGeometry x="-50" y="-540" width="639" height="60" as="geometry"/>
                </mxCell>
                <mxCell id="ncDOiu-j-n8d5i0-K15V-57" value="antwoord 1" style="rounded=0;whiteSpace=wrap;html=1;fontSize=16;" parent="1" vertex="1">
                    <mxGeometry x="-30" y="-450" width="260" height="60" as="geometry"/>
                </mxCell>
                <mxCell id="ncDOiu-j-n8d5i0-K15V-58" value="antwoord 3" style="rounded=0;whiteSpace=wrap;html=1;fontSize=16;" parent="1" vertex="1">
                    <mxGeometry x="-30" y="-350" width="260" height="60" as="geometry"/>
                </mxCell>
                <mxCell id="ncDOiu-j-n8d5i0-K15V-59" value="antwoord 4" style="rounded=0;whiteSpace=wrap;html=1;fontSize=16;" parent="1" vertex="1">
                    <mxGeometry x="310" y="-350" width="250" height="60" as="geometry"/>
                </mxCell>
                <mxCell id="ncDOiu-j-n8d5i0-K15V-60" value="antwoord 2" style="rounded=0;whiteSpace=wrap;html=1;fontSize=16;" parent="1" vertex="1">
                    <mxGeometry x="310" y="-450" width="250" height="60" as="geometry"/>
                </mxCell>
                <mxCell id="ncDOiu-j-n8d5i0-K15V-61" value="vraag 4" style="rounded=0;whiteSpace=wrap;html=1;fontSize=16;" parent="1" vertex="1">
                    <mxGeometry x="-50" y="-258" width="639" height="60" as="geometry"/>
                </mxCell>
                <mxCell id="ncDOiu-j-n8d5i0-K15V-62" value="antwoord 1" style="rounded=0;whiteSpace=wrap;html=1;fontSize=16;" parent="1" vertex="1">
                    <mxGeometry x="-30" y="-168" width="260" height="60" as="geometry"/>
                </mxCell>
                <mxCell id="ncDOiu-j-n8d5i0-K15V-63" value="antwoord 3" style="rounded=0;whiteSpace=wrap;html=1;fontSize=16;" parent="1" vertex="1">
                    <mxGeometry x="-30" y="-68" width="260" height="60" as="geometry"/>
                </mxCell>
                <mxCell id="ncDOiu-j-n8d5i0-K15V-64" value="antwoord 4" style="rounded=0;whiteSpace=wrap;html=1;fontSize=16;" parent="1" vertex="1">
                    <mxGeometry x="310" y="-68" width="250" height="60" as="geometry"/>
                </mxCell>
                <mxCell id="ncDOiu-j-n8d5i0-K15V-65" value="antwoord 2" style="rounded=0;whiteSpace=wrap;html=1;fontSize=16;" parent="1" vertex="1">
                    <mxGeometry x="310" y="-168" width="250" height="60" as="geometry"/>
                </mxCell>
                <mxCell id="ncDOiu-j-n8d5i0-K15V-66" value="vraag 5" style="rounded=0;whiteSpace=wrap;html=1;fontSize=16;" parent="1" vertex="1">
                    <mxGeometry x="-50" y="30" width="639" height="60" as="geometry"/>
                </mxCell>
                <mxCell id="ncDOiu-j-n8d5i0-K15V-67" value="antwoord 1" style="rounded=0;whiteSpace=wrap;html=1;fontSize=16;" parent="1" vertex="1">
                    <mxGeometry x="-30" y="120" width="260" height="60" as="geometry"/>
                </mxCell>
                <mxCell id="ncDOiu-j-n8d5i0-K15V-68" value="antwoord 3" style="rounded=0;whiteSpace=wrap;html=1;fontSize=16;" parent="1" vertex="1">
                    <mxGeometry x="-30" y="220" width="260" height="60" as="geometry"/>
                </mxCell>
                <mxCell id="ncDOiu-j-n8d5i0-K15V-69" value="antwoord 4" style="rounded=0;whiteSpace=wrap;html=1;fontSize=16;" parent="1" vertex="1">
                    <mxGeometry x="310" y="220" width="250" height="60" as="geometry"/>
                </mxCell>
                <mxCell id="ncDOiu-j-n8d5i0-K15V-70" value="antwoord 2" style="rounded=0;whiteSpace=wrap;html=1;fontSize=16;" parent="1" vertex="1">
                    <mxGeometry x="310" y="120" width="250" height="60" as="geometry"/>
                </mxCell>
                <mxCell id="QYe34gh8SJxeVQOpbFmE-1" value="submit" style="rounded=0;whiteSpace=wrap;html=1;fontSize=16;" parent="1" vertex="1">
                    <mxGeometry x="-30" y="316" width="260" height="60" as="geometry"/>
                </mxCell>
            </root>
        </mxGraphModel>
    </diagram>
    <diagram id="f3qVW8xS6dzQjn-yCHI3" name="open dagen overzicht">
        <mxGraphModel dx="1512" dy="2211" grid="1" gridSize="10" guides="1" tooltips="1" connect="1" arrows="1" fold="1" page="0" pageScale="1" pageWidth="1600" pageHeight="900" math="0" shadow="0">
            <root>
                <mxCell id="0"/>
                <mxCell id="1" parent="0"/>
                <mxCell id="8JvYFikZcJ7bNFKDzbGT-1" value="footer" style="rounded=0;whiteSpace=wrap;html=1;fontSize=16;" parent="1" vertex="1">
                    <mxGeometry x="-470" y="597" width="1319" height="150" as="geometry"/>
                </mxCell>
                <mxCell id="4N2u4gDSxGBZ2D8loqr2-1" value="nav" style="rounded=0;whiteSpace=wrap;html=1;fontSize=16;" parent="1" vertex="1">
                    <mxGeometry x="-399" y="-1260" width="1319" height="60" as="geometry"/>
                </mxCell>
                <mxCell id="XMiTi4QMqrWswyq_nvQY-1" value="" style="rounded=0;whiteSpace=wrap;html=1;fontSize=16;" parent="1" vertex="1">
                    <mxGeometry x="-399" y="-1260" width="62.36406619385343" height="60" as="geometry"/>
                </mxCell>
                <mxCell id="Gw3rpkoWbCOyavgt3TNK-1" value="" style="rounded=0;whiteSpace=wrap;html=1;fontSize=16;" parent="1" vertex="1">
                    <mxGeometry x="-310" y="-1100" width="466.64" height="460" as="geometry"/>
                </mxCell>
                <mxCell id="Gw3rpkoWbCOyavgt3TNK-2" value="" style="endArrow=none;html=1;rounded=0;fontSize=12;startSize=8;endSize=8;curved=1;entryX=1;entryY=0;entryDx=0;entryDy=0;exitX=0;exitY=1;exitDx=0;exitDy=0;" parent="1" source="Gw3rpkoWbCOyavgt3TNK-1" target="Gw3rpkoWbCOyavgt3TNK-1" edge="1">
                    <mxGeometry width="50" height="50" relative="1" as="geometry">
                        <mxPoint x="-86.63999999999999" y="-950" as="sourcePoint"/>
                        <mxPoint x="-36.639999999999986" y="-1000" as="targetPoint"/>
                    </mxGeometry>
                </mxCell>
                <mxCell id="Gw3rpkoWbCOyavgt3TNK-3" value="" style="endArrow=none;html=1;rounded=0;fontSize=12;startSize=8;endSize=8;curved=1;entryX=0;entryY=0;entryDx=0;entryDy=0;exitX=1;exitY=1;exitDx=0;exitDy=0;" parent="1" source="Gw3rpkoWbCOyavgt3TNK-1" target="Gw3rpkoWbCOyavgt3TNK-1" edge="1">
                    <mxGeometry width="50" height="50" relative="1" as="geometry">
                        <mxPoint x="-296.64" y="-550" as="sourcePoint"/>
                        <mxPoint x="253.36" y="-1100" as="targetPoint"/>
                    </mxGeometry>
                </mxCell>
                <mxCell id="Gw3rpkoWbCOyavgt3TNK-4" value="Lorem ipsum" style="rounded=0;whiteSpace=wrap;html=1;fontSize=16;" parent="1" vertex="1">
                    <mxGeometry x="170" y="-1090" width="210" height="140" as="geometry"/>
                </mxCell>
                <mxCell id="Gw3rpkoWbCOyavgt3TNK-5" value="lorem ipsum" style="rounded=1;whiteSpace=wrap;html=1;fontSize=16;" parent="1" vertex="1">
                    <mxGeometry x="400" y="-970" width="440" height="350" as="geometry"/>
                </mxCell>
                <mxCell id="s0mXHLItTGC06VPtzVdq-2" value="button" style="rounded=1;whiteSpace=wrap;html=1;fontSize=16;" parent="1" vertex="1">
                    <mxGeometry x="400" y="-560" width="430" height="100" as="geometry"/>
                </mxCell>
                <mxCell id="s0mXHLItTGC06VPtzVdq-3" value="share" style="rounded=1;whiteSpace=wrap;html=1;fontSize=16;" parent="1" vertex="1">
                    <mxGeometry x="170" y="-820" width="80" height="50" as="geometry"/>
                </mxCell>
                <mxCell id="s0mXHLItTGC06VPtzVdq-4" value="pagina nav" style="rounded=1;whiteSpace=wrap;html=1;fontSize=16;" parent="1" vertex="1">
                    <mxGeometry x="-427.82" y="-420" width="1277.82" height="60" as="geometry"/>
                </mxCell>
                <mxCell id="s0mXHLItTGC06VPtzVdq-5" value="lorem ipsum" style="rounded=1;whiteSpace=wrap;html=1;fontSize=16;" parent="1" vertex="1">
                    <mxGeometry x="-68.91" y="-300" width="560" height="60" as="geometry"/>
                </mxCell>
                <mxCell id="s0mXHLItTGC06VPtzVdq-6" value="video" style="rounded=1;whiteSpace=wrap;html=1;fontSize=16;align=left;" parent="1" vertex="1">
                    <mxGeometry x="-280" y="-180" width="960" height="460" as="geometry"/>
                </mxCell>
                <mxCell id="s0mXHLItTGC06VPtzVdq-7" value="" style="endArrow=none;html=1;rounded=0;fontSize=12;startSize=8;endSize=8;curved=1;entryX=0;entryY=0;entryDx=0;entryDy=0;exitX=1;exitY=1;exitDx=0;exitDy=0;" parent="1" source="s0mXHLItTGC06VPtzVdq-6" target="s0mXHLItTGC06VPtzVdq-6" edge="1">
                    <mxGeometry width="50" height="50" relative="1" as="geometry">
                        <mxPoint x="-140" y="-20" as="sourcePoint"/>
                        <mxPoint x="-90" y="-70" as="targetPoint"/>
                    </mxGeometry>
                </mxCell>
                <mxCell id="s0mXHLItTGC06VPtzVdq-8" value="" style="endArrow=none;html=1;rounded=0;fontSize=12;startSize=8;endSize=8;curved=1;exitX=1;exitY=0;exitDx=0;exitDy=0;entryX=0;entryY=1;entryDx=0;entryDy=0;" parent="1" source="s0mXHLItTGC06VPtzVdq-6" target="s0mXHLItTGC06VPtzVdq-6" edge="1">
                    <mxGeometry width="50" height="50" relative="1" as="geometry">
                        <mxPoint x="690" y="290" as="sourcePoint"/>
                        <mxPoint x="-270" y="-170" as="targetPoint"/>
                    </mxGeometry>
                </mxCell>
                <mxCell id="s0mXHLItTGC06VPtzVdq-10" value="registreer je voor de open dag" style="rounded=1;whiteSpace=wrap;html=1;fontSize=16;" parent="1" vertex="1">
                    <mxGeometry x="-68.91" y="380" width="548.91" height="130" as="geometry"/>
                </mxCell>
                <mxCell id="cfOxlCYR5QP8QMhF56it-1" value="" style="endArrow=none;html=1;rounded=0;fontSize=12;startSize=8;endSize=8;curved=1;" parent="1" edge="1">
                    <mxGeometry width="50" height="50" relative="1" as="geometry">
                        <mxPoint x="-393.80299448384557" y="-1205" as="sourcePoint"/>
                        <mxPoint x="-341.832939322301" y="-1255" as="targetPoint"/>
                    </mxGeometry>
                </mxCell>
                <mxCell id="cfOxlCYR5QP8QMhF56it-2" value="" style="endArrow=none;html=1;rounded=0;fontSize=12;startSize=8;endSize=8;curved=1;" parent="1" edge="1">
                    <mxGeometry width="50" height="50" relative="1" as="geometry">
                        <mxPoint x="-341.832939322301" y="-1205" as="sourcePoint"/>
                        <mxPoint x="-393.80299448384557" y="-1255" as="targetPoint"/>
                    </mxGeometry>
                </mxCell>
            </root>
        </mxGraphModel>
    </diagram>
    <diagram id="4ucxI6-6KPEcMCpeWd79" name="registreer open dag">
        <mxGraphModel dx="2575" dy="3128" grid="1" gridSize="10" guides="1" tooltips="1" connect="1" arrows="1" fold="1" page="0" pageScale="1" pageWidth="1600" pageHeight="900" math="0" shadow="0">
            <root>
                <mxCell id="0"/>
                <mxCell id="1" parent="0"/>
                <mxCell id="7pQ2JrGlFYwiZDZnnmqP-1" value="nav" style="rounded=0;whiteSpace=wrap;html=1;fontSize=16;" parent="1" vertex="1">
                    <mxGeometry x="-399" y="-1260" width="1319" height="60" as="geometry"/>
                </mxCell>
                <mxCell id="7pQ2JrGlFYwiZDZnnmqP-2" value="" style="rounded=0;whiteSpace=wrap;html=1;fontSize=16;" parent="1" vertex="1">
                    <mxGeometry x="-399" y="-1260" width="62.36406619385343" height="60" as="geometry"/>
                </mxCell>
                <mxCell id="7pQ2JrGlFYwiZDZnnmqP-3" value="" style="endArrow=none;html=1;rounded=0;fontSize=12;startSize=8;endSize=8;curved=1;" parent="1" edge="1">
                    <mxGeometry width="50" height="50" relative="1" as="geometry">
                        <mxPoint x="-393.80299448384557" y="-1205" as="sourcePoint"/>
                        <mxPoint x="-341.832939322301" y="-1255" as="targetPoint"/>
                    </mxGeometry>
                </mxCell>
                <mxCell id="7pQ2JrGlFYwiZDZnnmqP-4" value="" style="endArrow=none;html=1;rounded=0;fontSize=12;startSize=8;endSize=8;curved=1;" parent="1" edge="1">
                    <mxGeometry width="50" height="50" relative="1" as="geometry">
                        <mxPoint x="-341.832939322301" y="-1205" as="sourcePoint"/>
                        <mxPoint x="-393.80299448384557" y="-1255" as="targetPoint"/>
                    </mxGeometry>
                </mxCell>
                <mxCell id="7pQ2JrGlFYwiZDZnnmqP-5" value="Open dagen overzicht" style="rounded=0;whiteSpace=wrap;html=1;fontSize=16;" parent="1" vertex="1">
                    <mxGeometry x="-120" y="-1130" width="800" height="100" as="geometry"/>
                </mxCell>
                <mxCell id="7pQ2JrGlFYwiZDZnnmqP-7" value="" style="rounded=0;whiteSpace=wrap;html=1;fontSize=16;" parent="1" vertex="1">
                    <mxGeometry x="-274.5" y="-970" width="1070" height="450" as="geometry"/>
                </mxCell>
                <mxCell id="7pQ2JrGlFYwiZDZnnmqP-8" value="" style="endArrow=none;html=1;rounded=0;fontSize=12;startSize=8;endSize=8;curved=1;entryX=0;entryY=0;entryDx=0;entryDy=0;exitX=1;exitY=1;exitDx=0;exitDy=0;" parent="1" source="7pQ2JrGlFYwiZDZnnmqP-7" target="7pQ2JrGlFYwiZDZnnmqP-7" edge="1">
                    <mxGeometry width="50" height="50" relative="1" as="geometry">
                        <mxPoint x="-170" y="-810" as="sourcePoint"/>
                        <mxPoint x="-120" y="-860" as="targetPoint"/>
                    </mxGeometry>
                </mxCell>
                <mxCell id="7pQ2JrGlFYwiZDZnnmqP-9" value="" style="endArrow=none;html=1;rounded=0;fontSize=12;startSize=8;endSize=8;curved=1;entryX=1;entryY=0;entryDx=0;entryDy=0;exitX=0;exitY=1;exitDx=0;exitDy=0;" parent="1" source="7pQ2JrGlFYwiZDZnnmqP-7" target="7pQ2JrGlFYwiZDZnnmqP-7" edge="1">
                    <mxGeometry width="50" height="50" relative="1" as="geometry">
                        <mxPoint x="270" y="-800" as="sourcePoint"/>
                        <mxPoint x="320" y="-850" as="targetPoint"/>
                    </mxGeometry>
                </mxCell>
                <mxCell id="7pQ2JrGlFYwiZDZnnmqP-10" value="activiteiten overzicht" style="rounded=1;whiteSpace=wrap;html=1;fontSize=16;" parent="1" vertex="1">
                    <mxGeometry x="70" y="-460" width="310" height="60" as="geometry"/>
                </mxCell>
                <mxCell id="XsvfXZYXLYxSS0c7mFwy-1" value="footer" style="rounded=0;whiteSpace=wrap;html=1;fontSize=16;" parent="1" vertex="1">
                    <mxGeometry x="-430" y="365" width="1319" height="150" as="geometry"/>
                </mxCell>
                <mxCell id="XsvfXZYXLYxSS0c7mFwy-3" value="lorem ipsum" style="rounded=0;whiteSpace=wrap;html=1;fontSize=16;" parent="1" vertex="1">
                    <mxGeometry x="-250" y="-340" width="300" height="90" as="geometry"/>
                </mxCell>
                <mxCell id="XsvfXZYXLYxSS0c7mFwy-4" value="lorem ipsum" style="rounded=0;whiteSpace=wrap;html=1;fontSize=16;" parent="1" vertex="1">
                    <mxGeometry x="-250" y="-250" width="300" height="220" as="geometry"/>
                </mxCell>
                <mxCell id="XsvfXZYXLYxSS0c7mFwy-5" value="lorem ipsum" style="rounded=0;whiteSpace=wrap;html=1;fontSize=16;" parent="1" vertex="1">
                    <mxGeometry x="130" y="-340" width="300" height="90" as="geometry"/>
                </mxCell>
                <mxCell id="XsvfXZYXLYxSS0c7mFwy-6" value="lorem ipsum" style="rounded=0;whiteSpace=wrap;html=1;fontSize=16;" parent="1" vertex="1">
                    <mxGeometry x="130" y="-250" width="300" height="220" as="geometry"/>
                </mxCell>
                <mxCell id="XsvfXZYXLYxSS0c7mFwy-7" value="lorem ipsum" style="rounded=0;whiteSpace=wrap;html=1;fontSize=16;" parent="1" vertex="1">
                    <mxGeometry x="510" y="-340" width="300" height="90" as="geometry"/>
                </mxCell>
                <mxCell id="XsvfXZYXLYxSS0c7mFwy-8" value="lorem ipsum" style="rounded=0;whiteSpace=wrap;html=1;fontSize=16;" parent="1" vertex="1">
                    <mxGeometry x="510" y="-250" width="300" height="220" as="geometry"/>
                </mxCell>
                <mxCell id="XsvfXZYXLYxSS0c7mFwy-9" value="lorem ipsum" style="rounded=0;whiteSpace=wrap;html=1;fontSize=16;" parent="1" vertex="1">
                    <mxGeometry x="-250" y="-2" width="300" height="90" as="geometry"/>
                </mxCell>
                <mxCell id="XsvfXZYXLYxSS0c7mFwy-10" value="lorem ipsum" style="rounded=0;whiteSpace=wrap;html=1;fontSize=16;" parent="1" vertex="1">
                    <mxGeometry x="-250" y="88" width="300" height="220" as="geometry"/>
                </mxCell>
                <mxCell id="XsvfXZYXLYxSS0c7mFwy-11" value="lorem ipsum" style="rounded=0;whiteSpace=wrap;html=1;fontSize=16;" parent="1" vertex="1">
                    <mxGeometry x="130" y="-2" width="300" height="90" as="geometry"/>
                </mxCell>
                <mxCell id="XsvfXZYXLYxSS0c7mFwy-12" value="lorem ipsum" style="rounded=0;whiteSpace=wrap;html=1;fontSize=16;" parent="1" vertex="1">
                    <mxGeometry x="130" y="88" width="300" height="220" as="geometry"/>
                </mxCell>
                <mxCell id="XsvfXZYXLYxSS0c7mFwy-13" value="lorem ipsum" style="rounded=0;whiteSpace=wrap;html=1;fontSize=16;" parent="1" vertex="1">
                    <mxGeometry x="510" y="-2" width="300" height="90" as="geometry"/>
                </mxCell>
                <mxCell id="XsvfXZYXLYxSS0c7mFwy-14" value="lorem ipsum" style="rounded=0;whiteSpace=wrap;html=1;fontSize=16;" parent="1" vertex="1">
                    <mxGeometry x="510" y="88" width="300" height="220" as="geometry"/>
                </mxCell>
            </root>
        </mxGraphModel>
    </diagram>
</mxfile>